<?xml version="1.0" standalone="no"?>
<!DOCTYPE svg PUBLIC "-//W3C//DTD SVG 20010904//EN"
 "http://www.w3.org/TR/2001/REC-SVG-20010904/DTD/svg10.dtd">
<svg version="1.0" xmlns="http://www.w3.org/2000/svg"
 width="2048.000000pt" height="2048.000000pt" viewBox="0 0 2048.000000 2048.000000"
 preserveAspectRatio="xMidYMid meet">

<g transform="translate(0.000000,2048.000000) scale(0.100000,-0.100000)"
fill="#000000" stroke="none">
<path d="M5470 11117 c0 -22 5 -25 50 -31 31 -4 60 -16 77 -30 l28 -24 0 -609
c0 -334 -4 -625 -8 -646 -9 -44 -46 -71 -108 -81 -32 -5 -39 -10 -39 -29 l0
-22 395 2 c241 1 425 6 472 13 335 51 577 257 659 560 25 91 25 310 0 400 -69
254 -262 430 -541 493 -81 18 -133 21 -537 24 l-448 4 0 -24z m864 -96 c88
-32 137 -63 198 -129 96 -104 152 -248 168 -432 40 -467 -185 -749 -580 -726
-101 5 -154 17 -185 40 -19 14 -20 33 -23 631 -2 339 -1 624 2 632 5 13 31 15
184 11 148 -4 187 -9 236 -27z"/>
<path d="M11568 10960 c-274 -47 -479 -220 -560 -475 -29 -89 -35 -262 -14
-359 54 -239 232 -420 483 -488 64 -17 106 -21 233 -21 140 0 164 2 245 27
291 88 467 313 482 617 22 419 -283 713 -732 708 -49 -1 -111 -5 -137 -9z
m226 -87 c151 -53 272 -207 327 -418 30 -113 38 -336 15 -437 -44 -196 -139
-299 -306 -330 -77 -15 -169 -1 -247 38 -67 32 -155 119 -202 197 -77 130
-119 323 -108 497 14 222 87 364 221 430 102 50 202 58 300 23z"/>
<path d="M17627 10954 c-190 -41 -341 -138 -436 -279 -142 -213 -159 -473 -46
-702 101 -205 290 -325 556 -354 182 -20 380 18 510 96 126 77 230 209 274
346 117 370 -35 718 -373 855 -126 51 -345 68 -485 38z m216 -69 c87 -22 136
-51 202 -119 241 -246 257 -836 28 -1011 -111 -85 -292 -93 -420 -18 -117 67
-213 211 -260 391 -33 126 -37 339 -9 442 49 179 134 276 276 314 71 19 113
19 183 1z"/>
<path d="M3190 10935 c-1 -5 -7 -73 -14 -150 -8 -77 -12 -143 -9 -147 2 -5 14
-8 27 -8 19 0 24 9 39 71 32 137 53 149 262 149 l145 0 0 -553 c0 -635 9 -579
-99 -600 -53 -10 -61 -14 -61 -34 l0 -23 290 0 290 0 0 25 c0 21 -5 25 -27 25
-48 0 -102 20 -118 43 -13 19 -15 94 -15 570 l0 549 166 -4 166 -3 28 -32 c22
-24 31 -49 41 -107 12 -74 14 -76 41 -76 l28 0 0 158 0 157 -590 0 c-386 0
-590 -3 -590 -10z"/>
<path d="M1997 10933 c-4 -3 -7 -14 -7 -24 0 -13 12 -19 48 -24 26 -3 58 -15
72 -25 l25 -19 3 -549 c3 -624 10 -572 -85 -596 -37 -9 -48 -17 -48 -32 0 -18
10 -19 283 -20 l282 -1 0 24 c0 18 -5 23 -26 23 -42 0 -102 21 -121 43 -17 18
-18 60 -21 568 -2 519 -2 550 15 557 10 4 56 7 103 7 75 0 91 -3 133 -28 62
-37 101 -98 117 -183 40 -209 -69 -404 -225 -404 -43 0 -45 -1 -45 -30 l0 -30
78 0 c265 1 452 152 469 381 8 97 -15 164 -78 233 -28 31 -73 66 -102 81 -99
48 -163 55 -528 55 -185 0 -339 -3 -342 -7z"/>
<path d="M7190 10916 c0 -20 6 -25 44 -30 52 -8 83 -35 91 -79 4 -18 5 -311 2
-652 -4 -663 -5 -684 -56 -784 -23 -44 -74 -91 -119 -110 -24 -10 -32 -20 -32
-38 0 -22 3 -24 33 -18 57 11 191 81 241 126 67 59 121 146 152 243 33 102 43
296 43 863 l1 392 23 26 c17 20 35 28 70 32 41 5 47 8 47 29 l0 24 -270 0
-270 0 0 -24z"/>
<path d="M7862 10918 c2 -18 12 -24 48 -30 27 -5 54 -18 70 -33 l25 -25 0
-528 c0 -290 -3 -539 -7 -554 -8 -25 -56 -51 -113 -60 -11 -2 -21 -12 -23 -23
-3 -20 4 -20 497 -20 492 0 500 0 505 20 12 52 56 288 54 291 -2 1 -15 5 -29
9 -25 6 -27 3 -38 -41 -18 -70 -46 -120 -87 -150 -31 -24 -49 -29 -147 -37
-68 -6 -158 -6 -227 -1 l-115 9 -3 258 -2 257 179 0 c99 0 187 -3 196 -6 20
-8 45 -56 45 -88 0 -37 10 -56 31 -56 18 0 19 10 19 190 l0 190 -24 0 c-21 0
-24 -6 -29 -47 -4 -35 -12 -53 -32 -70 -25 -22 -33 -23 -206 -23 l-179 0 0
257 0 256 189 -6 c255 -8 273 -16 305 -140 8 -33 16 -60 18 -62 6 -6 58 7 54
14 -3 4 -6 66 -7 139 l-2 132 -484 0 -484 0 3 -22z"/>
<path d="M9154 10925 c-9 -21 4 -35 33 -35 34 0 90 -28 108 -54 23 -32 19 -93
-35 -606 -35 -335 -54 -480 -65 -496 -11 -17 -32 -27 -75 -36 -53 -10 -60 -15
-60 -35 l0 -23 208 2 c198 3 207 4 207 23 0 15 -11 22 -55 31 -102 21 -106 27
-98 152 11 163 59 729 66 766 8 45 3 55 260 -564 168 -405 176 -420 210 -420
28 0 32 7 165 308 124 280 187 427 277 646 21 51 35 74 40 65 12 -23 70 -730
70 -854 0 -34 -5 -66 -12 -73 -7 -7 -38 -17 -70 -24 -50 -10 -58 -15 -58 -35
l0 -23 285 0 285 0 0 24 c0 20 -6 24 -48 30 -62 8 -89 28 -102 74 -6 20 -24
179 -40 352 -17 173 -37 375 -45 448 -8 74 -15 164 -15 201 0 58 3 71 24 90
14 13 43 25 72 29 41 6 50 11 52 30 l3 22 -196 -2 -197 -3 -32 -85 c-96 -250
-352 -840 -366 -840 -3 0 -17 26 -31 58 -14 31 -106 240 -204 465 l-179 407
-188 0 c-156 0 -190 -3 -194 -15z"/>
<path d="M12630 10916 c0 -21 6 -25 46 -31 29 -4 56 -16 70 -30 l24 -24 0
-545 c0 -493 -2 -546 -17 -561 -21 -22 -57 -35 -94 -35 -24 0 -29 -4 -29 -25
l0 -25 499 0 498 0 32 158 c17 86 31 160 31 165 0 4 -13 7 -29 7 -27 0 -31 -5
-45 -52 -20 -67 -54 -126 -87 -150 -14 -11 -56 -23 -98 -29 -71 -10 -375 -9
-384 1 -2 3 -8 121 -11 263 l-8 258 192 -3 c187 -3 192 -4 211 -26 10 -13 21
-46 25 -73 6 -43 9 -49 30 -49 l24 0 0 195 0 195 -24 0 c-20 0 -24 -6 -30 -40
-9 -60 -26 -88 -59 -100 -16 -5 -104 -10 -193 -10 l-164 0 0 98 c0 55 -3 167
-7 250 l-6 152 191 0 c105 0 202 -4 217 -10 43 -16 73 -58 86 -118 14 -68 20
-76 48 -67 19 6 21 14 21 78 0 40 -3 102 -7 140 l-6 67 -473 0 -474 0 0 -24z"/>
<path d="M13824 10925 c-9 -23 2 -32 48 -39 56 -9 120 -47 138 -82 13 -23 15
-109 15 -540 0 -590 8 -542 -100 -566 -49 -11 -60 -17 -60 -33 0 -19 8 -20
218 -23 l218 -2 -3 22 c-2 16 -13 25 -38 31 -95 23 -111 29 -122 50 -10 17
-14 130 -16 460 -2 240 -1 437 1 437 12 0 100 -98 642 -710 139 -157 261 -293
271 -302 15 -13 30 -16 57 -11 l36 5 3 592 c3 541 4 594 21 623 18 33 62 53
120 53 22 0 27 4 27 25 l0 25 -220 0 -220 0 0 -24 c0 -21 6 -24 51 -29 67 -8
96 -28 108 -74 7 -23 11 -183 11 -411 l0 -373 -52 59 c-29 33 -170 189 -313
348 -143 159 -302 337 -354 397 l-95 107 -193 0 c-160 0 -195 -3 -199 -15z"/>
<path d="M15470 10917 c0 -21 6 -25 41 -31 65 -10 97 -32 104 -69 3 -17 4
-268 3 -556 l-3 -524 -26 -19 c-14 -11 -44 -22 -67 -25 -36 -5 -42 -9 -42 -29
l0 -24 378 4 c286 3 395 7 452 19 349 71 560 314 560 642 0 190 -49 314 -170
435 -86 86 -178 137 -312 172 -77 20 -113 22 -500 25 l-418 5 0 -25z m731 -71
c97 -21 157 -53 225 -121 133 -133 191 -359 150 -595 -49 -283 -223 -423 -506
-407 -52 3 -113 12 -135 19 l-40 13 -6 90 c-4 50 -7 296 -8 547 l-1 457 33 4
c76 9 227 6 288 -7z"/>
<path d="M4555 9892 c-54 -34 -68 -59 -73 -120 -4 -52 -1 -61 23 -90 68 -80
173 -83 234 -6 46 59 31 161 -31 205 -42 31 -114 36 -153 11z"/>
<path d="M17655 9346 c-61 -47 -264 -171 -405 -247 -641 -347 -1334 -549
-2272 -664 -340 -41 -1043 -71 -1413 -60 -809 24 -1432 83 -3100 291 -1393
173 -2290 247 -3180 260 -1518 24 -2716 -162 -3750 -583 -139 -57 -234 -100
-170 -78 11 4 102 36 202 71 215 75 415 130 665 183 736 157 1296 211 2208
211 822 0 1464 -47 2680 -196 187 -22 392 -49 1145 -149 787 -104 1495 -181
2025 -219 518 -38 609 -41 1160 -41 505 0 593 3 825 23 690 61 1133 142 1667
308 653 201 1170 461 1646 827 88 68 111 87 100 87 -2 0 -16 -11 -33 -24z"/>
<path d="M17389 9245 c-132 -68 -358 -159 -559 -226 -113 -37 -193 -68 -178
-69 15 0 29 4 32 9 3 5 23 12 43 15 21 4 46 9 56 12 9 3 17 1 17 -5 0 -6 -6
-11 -12 -11 -7 0 -24 -9 -38 -20 -24 -20 -23 -20 30 1 30 12 62 24 70 26 90
33 610 287 610 299 0 6 2 6 -71 -31z"/>
<path d="M16598 8943 c7 -3 16 -2 19 1 4 3 -2 6 -13 5 -11 0 -14 -3 -6 -6z"/>
<path d="M16535 8930 c-13 -5 -14 -9 -5 -9 8 0 24 4 35 9 13 5 14 9 5 9 -8 0
-24 -4 -35 -9z"/>
<path d="M16695 8930 c-3 -5 -19 -10 -36 -10 -16 0 -29 -5 -29 -11 0 -8 -5 -8
-15 1 -9 7 -15 8 -15 2 0 -10 -17 -18 -127 -57 -45 -16 -65 -19 -74 -11 -9 8
-10 8 -5 -1 4 -8 -8 -16 -36 -24 -24 -6 -38 -14 -32 -16 15 -5 381 115 389
127 3 6 2 10 -4 10 -5 0 -13 -4 -16 -10z"/>
<path d="M10588 8913 c7 -3 16 -2 19 1 4 3 -2 6 -13 5 -11 0 -14 -3 -6 -6z"/>
<path d="M16488 8913 c7 -3 16 -2 19 1 4 3 -2 6 -13 5 -11 0 -14 -3 -6 -6z"/>
<path d="M10673 8903 c9 -2 23 -2 30 0 6 3 -1 5 -18 5 -16 0 -22 -2 -12 -5z"/>
<path d="M10748 8889 c13 -5 28 -7 32 -4 29 18 48 -31 22 -57 -15 -15 -16 -32
-2 -23 6 3 10 0 10 -9 0 -8 3 -21 6 -30 4 -11 0 -16 -14 -16 -11 0 -25 -7 -33
-16 -7 -9 -22 -14 -35 -11 -13 2 -29 0 -36 -4 -9 -6 -8 -9 6 -9 11 0 141 -14
290 -30 148 -17 277 -29 285 -27 10 3 7 5 -7 6 -13 0 -20 6 -17 11 3 6 1 10
-4 10 -6 0 -11 -4 -11 -8 0 -5 -14 -6 -31 -4 -23 3 -28 7 -18 14 10 7 5 8 -13
4 -34 -8 -37 1 -5 14 18 7 19 9 4 9 -17 1 -17 2 -3 17 9 8 21 12 27 8 8 -5 10
1 6 18 -8 29 12 52 35 43 8 -3 20 1 27 9 7 8 20 12 28 9 11 -5 14 -3 8 6 -6
10 9 12 71 8 69 -5 66 -4 -26 8 -166 21 -572 65 -600 64 l-25 0 23 -10z m347
-199 c3 -5 1 -10 -4 -10 -6 0 -11 5 -11 10 0 6 2 10 4 10 3 0 8 -4 11 -10z"/>
<path d="M16288 8793 c7 -3 16 -2 19 1 4 3 -2 6 -13 5 -11 0 -14 -3 -6 -6z"/>
<path d="M10623 8723 c9 -2 25 -2 35 0 9 3 1 5 -18 5 -19 0 -27 -2 -17 -5z"/>
<path d="M11220 8709 c0 -5 5 -7 10 -4 6 3 10 8 10 11 0 2 -4 4 -10 4 -5 0
-10 -5 -10 -11z"/>
<path d="M4468 8703 c7 -3 16 -2 19 1 4 3 -2 6 -13 5 -11 0 -14 -3 -6 -6z"/>
<path d="M4355 8675 c-38 -12 -65 -23 -60 -24 6 0 44 10 85 23 41 13 68 24 60
25 -8 0 -46 -11 -85 -24z"/>
<path d="M11309 8647 c5 -5 19 -7 32 -5 20 3 19 5 -9 9 -20 3 -29 2 -23 -4z"/>
<path d="M11398 8633 c7 -3 16 -2 19 1 4 3 -2 6 -13 5 -11 0 -14 -3 -6 -6z"/>
<path d="M16405 8558 c-99 -41 -518 -185 -655 -226 l-35 -10 31 -1 c16 -1 35
4 42 11 9 9 12 8 12 -5 0 -9 2 -17 4 -17 12 0 66 23 66 28 0 4 11 8 24 8 14 1
38 9 55 17 17 8 45 18 62 22 42 9 465 185 514 213 41 23 -3 9 -120 -40z"/>
<path d="M4288 8483 c6 -2 18 -2 25 0 6 3 1 5 -13 5 -14 0 -19 -2 -12 -5z"/>
<path d="M4236 8465 c4 -8 7 -15 9 -15 2 0 5 7 9 15 3 9 0 15 -9 15 -9 0 -12
-6 -9 -15z"/>
<path d="M4165 8463 c-11 -2 -85 -20 -165 -39 -200 -48 -381 -96 -377 -101 2
-2 69 12 148 32 136 33 377 83 427 88 12 1 23 7 25 12 2 11 -28 16 -58 8z"/>
<path d="M10053 8343 c9 -2 23 -2 30 0 6 3 -1 5 -18 5 -16 0 -22 -2 -12 -5z"/>
<path d="M10105 8330 c4 -6 11 -8 16 -4 6 3 25 3 44 0 25 -5 35 -13 37 -29 2
-15 10 -22 25 -21 12 0 20 -3 17 -8 -3 -4 -1 -8 5 -8 5 0 18 -3 28 -7 15 -6
16 -4 6 9 -17 20 13 49 41 39 11 -4 31 -5 45 -2 15 3 -25 12 -99 22 -147 21
-173 23 -165 9z"/>
<path d="M15648 8303 c7 -3 16 -2 19 1 4 3 -2 6 -13 5 -11 0 -14 -3 -6 -6z"/>
<path d="M10413 8293 c9 -2 23 -2 30 0 6 3 -1 5 -18 5 -16 0 -22 -2 -12 -5z"/>
<path d="M10323 8271 c-1 -14 3 -18 13 -14 11 4 12 9 3 19 -15 18 -14 18 -16
-5z"/>
<path d="M10493 8283 c9 -2 23 -2 30 0 6 3 -1 5 -18 5 -16 0 -22 -2 -12 -5z"/>
<path d="M10243 8243 c4 -7 0 -13 -10 -16 -17 -4 -17 -5 0 -6 9 0 17 -9 17
-18 0 -15 -2 -16 -10 -3 -9 13 -11 13 -19 1 -8 -12 -14 -13 -35 -3 -21 9 -26
9 -26 -3 0 -8 13 -15 33 -18 31 -4 31 -4 -5 -5 -24 -1 -38 3 -38 10 0 9 -3 9
-12 0 -6 -6 -10 -13 -7 -15 8 -7 440 -59 445 -54 3 3 -28 10 -68 16 -40 7 -86
16 -103 20 -24 7 -20 8 25 6 30 -1 45 0 33 2 -13 2 -23 9 -23 14 0 5 -9 9 -20
9 -11 0 -20 5 -20 11 0 5 -4 8 -9 4 -5 -3 -13 -1 -16 5 -4 7 -11 8 -18 2 -17
-13 -60 5 -54 22 4 9 -2 13 -16 12 -12 -1 -28 3 -36 8 -11 8 -13 8 -8 -1z m50
-27 c3 -8 0 -17 -8 -19 -17 -7 -25 1 -18 19 7 18 19 18 26 0z"/>
<path d="M10003 8183 c9 -2 25 -2 35 0 9 3 1 5 -18 5 -19 0 -27 -2 -17 -5z"/>
<path d="M10080 8180 c-24 -8 -23 -8 8 -9 17 -1 32 4 32 9 0 11 -5 11 -40 0z"/>
<path d="M10633 8103 c9 -2 23 -2 30 0 6 3 -1 5 -18 5 -16 0 -22 -2 -12 -5z"/>
</g>
</svg>
