<?xml version="1.0" standalone="no"?>
<!DOCTYPE svg PUBLIC "-//W3C//DTD SVG 20010904//EN"
 "http://www.w3.org/TR/2001/REC-SVG-20010904/DTD/svg10.dtd">
<svg version="1.0" xmlns="http://www.w3.org/2000/svg"
 width="1920.000000pt" height="1080.000000pt" viewBox="0 0 1920.000000 1080.000000"
 preserveAspectRatio="xMidYMid meet">

<g transform="translate(0.000000,1080.000000) scale(0.100000,-0.100000)"
fill="#000000" stroke="none">
<path d="M5620 9361 c0 -15 10 -21 41 -26 22 -4 52 -17 67 -30 l27 -23 3 -409
c2 -224 0 -468 -3 -541 -8 -156 -19 -179 -93 -189 -32 -4 -42 -10 -42 -24 0
-18 15 -19 348 -19 305 0 359 3 442 20 263 54 452 226 517 470 28 104 23 273
-11 377 -46 142 -121 234 -256 313 -144 84 -252 100 -697 100 -331 0 -343 -1
-343 -19z m693 -72 c164 -32 290 -167 344 -369 25 -92 24 -332 -1 -415 -56
-186 -169 -294 -343 -326 -78 -15 -224 -5 -271 18 l-37 18 -3 542 -2 542 62 4
c79 4 188 -1 251 -14z"/>
<path d="M10808 9215 c-96 -19 -220 -87 -293 -160 -67 -67 -126 -170 -150
-261 -19 -75 -19 -233 0 -309 33 -124 116 -241 224 -313 181 -121 489 -136
700 -35 91 43 191 140 239 230 121 229 83 521 -90 694 -67 68 -190 132 -293
154 -86 18 -247 18 -337 0z m275 -80 c107 -53 200 -183 243 -340 24 -90 30
-304 10 -388 -31 -134 -104 -228 -203 -261 -67 -23 -170 -21 -240 6 -77 28
-177 127 -221 218 -57 116 -75 212 -70 374 4 124 8 148 31 205 31 75 64 120
113 158 92 70 229 81 337 28z"/>
<path d="M16014 9210 c-123 -32 -244 -106 -313 -193 -73 -91 -130 -253 -131
-370 0 -26 7 -83 16 -125 55 -269 263 -434 569 -449 377 -19 638 196 661 546
20 292 -164 537 -448 595 -105 22 -264 20 -354 -4z m278 -68 c26 -11 70 -42
98 -68 110 -103 169 -253 177 -451 11 -242 -48 -391 -181 -461 -44 -23 -63
-27 -141 -27 -82 0 -96 3 -157 33 -112 55 -194 172 -240 341 -31 111 -31 309
-1 406 40 126 98 195 200 236 63 25 178 21 245 -9z"/>
<path d="M2640 9183 c0 -19 5 -23 34 -23 22 0 45 -9 62 -23 26 -22 26 -26 31
-158 2 -73 0 -287 -4 -474 l-8 -339 -25 -13 c-14 -7 -37 -15 -52 -18 -18 -3
-28 -12 -28 -23 0 -16 19 -17 240 -17 213 0 240 2 240 16 0 11 -17 20 -55 28
-90 20 -85 -11 -85 527 l0 471 50 7 c178 24 282 -89 267 -288 -6 -79 -36 -153
-79 -193 -30 -29 -89 -53 -128 -53 -23 0 -30 -5 -30 -19 0 -26 50 -34 141 -21
134 19 244 91 296 195 31 59 41 167 23 234 -15 57 -87 133 -155 165 -83 40
-165 48 -462 44 l-273 -3 0 -22z"/>
<path d="M3656 9121 c-4 -47 -9 -107 -13 -133 -5 -46 -5 -48 20 -48 22 0 26 6
32 43 4 23 14 59 23 81 22 55 55 66 207 66 l125 0 0 -474 0 -475 -26 -20 c-15
-12 -41 -21 -58 -21 -37 0 -60 -13 -54 -31 3 -10 58 -13 251 -13 222 -1 247 1
247 15 0 17 -27 29 -68 29 -13 0 -34 11 -47 25 l-25 24 0 471 0 472 145 -4
c171 -4 178 -8 196 -103 17 -86 16 -85 44 -85 25 0 25 1 25 83 0 45 -3 105 -6
132 l-6 50 -503 1 -502 2 -7 -87z"/>
<path d="M7297 9203 c-190 -3 -208 -5 -205 -21 2 -11 17 -19 41 -23 21 -3 47
-15 57 -25 18 -18 19 -45 21 -559 2 -553 -1 -603 -38 -693 -19 -47 -58 -89
-105 -113 -25 -13 -35 -24 -32 -34 9 -23 41 -18 119 20 138 66 215 163 255
321 16 61 20 111 20 238 0 89 3 307 7 485 7 364 4 352 82 365 33 5 42 10 39
24 -4 20 13 19 -261 15z"/>
<path d="M7677 9203 c-17 -16 -4 -32 32 -38 48 -8 78 -35 86 -77 3 -18 5 -230
3 -471 -3 -438 -3 -439 -25 -457 -12 -9 -40 -20 -63 -24 -31 -5 -41 -11 -38
-23 3 -14 43 -16 428 -14 233 1 426 3 427 5 2 1 53 256 53 264 0 1 -11 2 -24
2 -20 0 -27 -8 -40 -47 -23 -68 -51 -110 -85 -128 -38 -19 -207 -30 -324 -20
l-87 7 0 225 0 225 161 -4 c155 -3 161 -4 180 -27 10 -13 19 -34 19 -46 0 -36
11 -55 31 -55 18 0 19 10 19 159 0 118 -3 160 -12 163 -25 9 -38 -4 -38 -38 0
-24 -8 -43 -25 -59 -24 -24 -28 -25 -180 -25 l-155 0 0 220 0 220 93 -1 c50 0
132 -4 180 -8 106 -9 129 -26 150 -111 14 -52 30 -69 52 -52 6 4 9 54 7 125
l-3 117 -408 0 c-224 0 -411 -3 -414 -7z"/>
<path d="M8784 9201 c-14 -14 2 -30 40 -40 24 -6 54 -19 67 -30 22 -18 24 -26
22 -98 -2 -43 -12 -159 -23 -258 -11 -99 -29 -270 -40 -379 -22 -217 -29 -240
-82 -251 -59 -12 -68 -16 -68 -33 0 -15 18 -17 178 -17 147 1 177 3 177 15 0
14 -21 23 -77 35 -15 3 -34 13 -43 22 -20 19 -20 19 14 413 31 360 32 373 41
364 10 -10 54 -113 193 -449 155 -374 172 -410 200 -413 22 -3 32 15 139 260
64 145 141 324 172 398 31 74 67 158 80 185 l24 50 6 -45 c7 -51 42 -479 52
-642 8 -120 3 -133 -49 -143 -59 -12 -67 -16 -67 -36 0 -19 8 -19 242 -17 217
3 243 5 246 20 2 11 -6 18 -30 23 -59 11 -86 26 -97 53 -5 15 -20 124 -31 242
-11 118 -30 298 -40 400 -26 246 -26 281 3 308 12 11 41 24 65 28 32 5 42 11
42 26 0 17 -9 18 -167 16 l-167 -3 -19 -50 c-106 -268 -301 -720 -318 -739
-10 -11 -6 -20 -273 589 l-88 200 -160 0 c-88 0 -162 -2 -164 -4z"/>
<path d="M11760 9191 c0 -20 18 -31 50 -31 11 0 32 -11 47 -24 l28 -24 -3
-469 c-3 -449 -4 -469 -23 -485 -10 -9 -37 -19 -59 -23 -30 -5 -40 -11 -40
-25 0 -18 16 -19 425 -16 234 2 428 5 430 8 9 9 55 253 51 265 -3 7 -14 13
-25 13 -15 0 -23 -12 -35 -53 -9 -29 -26 -69 -39 -88 -39 -58 -60 -64 -267
-64 l-185 0 -3 228 -2 228 147 -6 c82 -4 158 -8 169 -10 22 -5 41 -40 46 -85
2 -17 10 -26 26 -28 l22 -3 0 165 0 166 -25 0 c-21 0 -25 -5 -25 -30 0 -45
-20 -78 -53 -90 -16 -5 -92 -10 -168 -10 l-139 0 0 215 0 215 163 0 c109 0
170 -4 187 -13 34 -17 66 -68 74 -116 5 -32 11 -41 26 -41 10 0 21 4 24 9 3 4
3 61 -1 125 l-6 116 -409 0 c-394 0 -408 -1 -408 -19z"/>
<path d="M12790 9190 c0 -13 9 -22 28 -26 50 -11 83 -27 112 -54 l30 -28 0
-445 c0 -509 5 -482 -85 -495 -39 -6 -50 -11 -50 -26 0 -17 12 -18 183 -20
178 -1 183 -1 180 19 -2 16 -13 21 -52 27 -29 4 -58 15 -70 28 -20 20 -21 31
-24 403 l-4 381 23 -19 c19 -17 331 -366 673 -753 89 -100 103 -112 133 -112
l33 0 0 193 c1 372 12 812 21 843 10 31 43 54 79 54 30 0 50 11 50 29 0 14
-20 16 -187 14 -136 -1 -188 -4 -191 -13 -6 -16 17 -30 50 -30 43 0 76 -20 88
-53 6 -19 10 -154 10 -356 l0 -325 -63 69 c-35 39 -108 120 -161 180 -54 61
-184 206 -288 323 l-190 212 -164 0 c-157 0 -164 -1 -164 -20z"/>
<path d="M14203 9193 c-8 -19 6 -33 33 -33 37 0 81 -26 88 -52 3 -13 6 -226 6
-475 l0 -452 -26 -20 c-15 -12 -35 -21 -45 -21 -30 0 -49 -11 -49 -29 0 -16
22 -17 313 -14 171 2 343 8 382 14 148 24 256 80 353 183 97 104 142 222 142
371 0 301 -190 495 -526 535 -132 16 -664 10 -671 -7z m687 -84 c115 -40 215
-163 251 -309 17 -72 18 -260 0 -330 -34 -135 -117 -238 -227 -280 -48 -19
-79 -23 -164 -24 -58 0 -123 5 -146 12 l-41 12 -6 82 c-4 46 -7 257 -7 470 l0
387 28 4 c15 3 77 4 137 2 82 -2 127 -9 175 -26z"/>
<path d="M4828 8304 c-56 -30 -74 -112 -38 -171 24 -40 54 -56 105 -56 113 0
162 128 80 210 -27 27 -40 33 -76 33 -24 -1 -56 -7 -71 -16z"/>
<path d="M15940 7754 c-923 -593 -2227 -830 -3969 -719 -433 27 -1073 96
-2141 230 -727 91 -1466 162 -2025 195 -299 18 -1042 24 -1340 11 -992 -43
-1759 -193 -2494 -487 -51 -20 -90 -38 -88 -40 2 -2 64 17 138 42 377 127 861
225 1399 283 470 51 1279 58 1910 16 542 -36 1132 -100 2185 -240 456 -61 555
-73 904 -114 387 -46 873 -92 1241 -118 367 -25 1239 -25 1530 0 1112 97 1974
377 2685 871 98 68 198 146 185 145 -3 -1 -57 -34 -120 -75z"/>
<path d="M15625 7654 c-71 -31 -179 -71 -238 -91 -60 -19 -107 -37 -104 -39 2
-3 16 0 31 5 29 12 36 -2 9 -18 -10 -6 -15 -11 -12 -11 9 0 127 48 194 80 199
93 255 120 255 125 0 6 16 12 -135 -51z"/>
<path d="M15168 7493 c7 -3 16 -2 19 1 4 3 -2 6 -13 5 -11 0 -14 -3 -6 -6z"/>
<path d="M15152 7454 c-41 -20 -36 -24 12 -10 27 8 51 17 54 20 10 10 -42 2
-66 -10z"/>
<path d="M10182 7443 c28 -4 28 -5 13 -39 -8 -19 -10 -32 -5 -29 6 3 10 2 10
-4 0 -5 2 -15 5 -23 6 -16 -37 -38 -79 -39 -46 -2 96 -24 282 -45 121 -13 166
-14 174 -6 8 8 1 10 -27 5 -29 -5 -36 -3 -30 7 5 9 2 10 -14 5 -27 -8 -27 -1
2 27 13 13 21 30 19 37 -6 17 18 32 39 25 10 -2 19 2 23 11 3 9 10 14 15 11 5
-3 20 -2 33 3 12 6 19 10 13 10 -5 1 -102 12 -215 26 -113 14 -223 24 -245 23
-30 -1 -33 -2 -13 -5z"/>
<path d="M15000 7400 c-18 -12 -2 -12 25 0 13 6 15 9 5 9 -8 0 -22 -4 -30 -9z"/>
<path d="M14958 7383 c7 -3 16 -2 19 1 4 3 -2 6 -13 5 -11 0 -14 -3 -6 -6z"/>
<path d="M4668 7263 c7 -3 16 -2 19 1 4 3 -2 6 -13 5 -11 0 -14 -3 -6 -6z"/>
<path d="M15090 7200 c-8 -5 -10 -10 -5 -10 6 0 17 5 25 10 8 5 11 10 5 10 -5
0 -17 -5 -25 -10z"/>
<path d="M15020 7170 c-8 -5 -10 -10 -5 -10 6 0 17 5 25 10 8 5 11 10 5 10 -5
0 -17 -5 -25 -10z"/>
<path d="M14940 7138 c-55 -23 -222 -82 -342 -122 -86 -27 -125 -45 -120 -52
7 -12 20 -8 277 89 114 42 237 96 220 96 -5 0 -21 -5 -35 -11z"/>
<path d="M4530 7083 c-46 -5 -260 -56 -255 -61 5 -6 279 50 290 60 5 4 7 7 5
6 -3 0 -21 -3 -40 -5z"/>
<path d="M4228 7013 c6 -2 18 -2 25 0 6 3 1 5 -13 5 -14 0 -19 -2 -12 -5z"/>
<path d="M14438 6963 c7 -3 16 -2 19 1 4 3 -2 6 -13 5 -11 0 -14 -3 -6 -6z"/>
<path d="M9680 6941 c0 -27 48 -38 65 -14 9 12 25 17 56 16 l44 -1 -45 8 c-25
5 -62 9 -82 9 -31 1 -38 -3 -38 -18z"/>
<path d="M9858 6933 c6 -2 18 -2 25 0 6 3 1 5 -13 5 -14 0 -19 -2 -12 -5z"/>
<path d="M9780 6909 c0 -5 5 -7 10 -4 6 3 10 8 10 11 0 2 -4 4 -10 4 -5 0 -10
-5 -10 -11z"/>
<path d="M9712 6895 c4 -6 0 -19 -7 -29 -10 -13 -21 -17 -39 -12 -15 4 -26 2
-26 -4 0 -5 12 -10 28 -10 16 0 22 -3 15 -8 -7 -4 60 -18 148 -30 89 -13 163
-21 166 -18 5 5 -77 21 -95 17 -7 -1 -11 4 -10 11 2 7 -7 17 -19 23 -13 5 -23
13 -23 16 0 4 -8 5 -18 2 -23 -6 -75 14 -68 26 4 5 -2 8 -11 6 -10 -1 -24 3
-32 9 -8 6 -12 6 -9 1z m46 -33 c5 -15 -15 -16 -24 -1 -4 8 -9 7 -15 -2 -5 -8
-9 -9 -9 -3 0 24 40 29 48 6z"/>
<path d="M9508 6843 c6 -2 18 -2 25 0 6 3 1 5 -13 5 -14 0 -19 -2 -12 -5z"/>
<path d="M9573 6833 c9 -2 23 -2 30 0 6 3 -1 5 -18 5 -16 0 -22 -2 -12 -5z"/>
</g>
</svg>
