<?xml version="1.0" standalone="no"?>
<!DOCTYPE svg PUBLIC "-//W3C//DTD SVG 20010904//EN"
 "http://www.w3.org/TR/2001/REC-SVG-20010904/DTD/svg10.dtd">
<svg version="1.0" xmlns="http://www.w3.org/2000/svg"
 width="1920.000000pt" height="1080.000000pt" viewBox="0 0 1920.000000 1080.000000"
 preserveAspectRatio="xMidYMid meet">

<g transform="translate(0.000000,1080.000000) scale(0.100000,-0.100000)"
fill="#000000" stroke="none">
<path d="M4430 7077 c0 -23 6 -27 56 -37 35 -8 67 -22 87 -40 l32 -28 -1 -659
c-1 -688 -2 -710 -44 -748 -11 -10 -43 -23 -72 -30 -42 -9 -54 -16 -56 -33
l-3 -22 429 0 c444 0 517 5 662 47 277 79 499 306 567 578 27 110 24 336 -5
440 -82 286 -296 466 -632 531 -69 13 -173 17 -552 21 l-468 5 0 -25z m875
-92 c218 -46 369 -208 435 -465 27 -108 37 -306 21 -418 -53 -363 -272 -548
-626 -529 -57 3 -124 13 -155 24 l-55 18 -7 55 c-8 73 -10 1315 -1 1323 13 14
317 7 388 -8z"/>
<path d="M11013 6896 c-103 -20 -159 -40 -245 -91 -219 -128 -352 -347 -365
-600 -7 -136 14 -241 74 -365 38 -80 59 -109 132 -181 70 -70 102 -94 172
-128 143 -69 218 -84 409 -84 137 0 179 3 245 21 267 72 464 268 525 524 40
169 21 374 -49 523 -80 171 -259 313 -461 366 -107 28 -329 35 -437 15z m319
-108 c126 -63 239 -207 291 -373 47 -148 62 -399 32 -539 -33 -154 -115 -270
-228 -322 -57 -27 -71 -29 -177 -29 -111 0 -118 1 -185 34 -143 70 -264 236
-316 436 -30 112 -37 330 -15 444 17 92 66 206 111 259 39 46 102 87 171 111
46 17 78 21 150 19 81 -3 98 -7 166 -40z"/>
<path d="M17628 6900 c-165 -28 -322 -111 -436 -230 -61 -63 -142 -216 -169
-320 -23 -89 -23 -282 0 -370 57 -215 210 -390 416 -474 107 -43 204 -60 351
-60 170 0 262 19 395 84 88 42 110 58 185 137 97 100 147 189 181 318 30 111
30 289 1 398 -74 274 -285 461 -579 512 -90 16 -265 18 -345 5z m298 -109
c140 -69 251 -224 305 -426 27 -100 38 -357 19 -462 -40 -230 -176 -370 -371
-381 -238 -14 -424 140 -512 423 -39 124 -50 219 -45 367 7 190 48 307 142
406 77 82 159 113 292 109 91 -2 106 -5 170 -36z"/>
<path d="M1960 6869 c0 -19 -17 -198 -25 -271 -6 -48 -6 -48 24 -48 25 0 32 5
37 28 28 124 43 156 87 182 28 18 51 20 200 20 l167 0 0 -595 0 -596 -24 -24
c-15 -15 -41 -26 -72 -30 -70 -9 -76 -12 -72 -37 l3 -22 310 1 c304 0 310 1
313 21 3 17 -4 21 -40 27 -24 3 -58 11 -75 16 -66 21 -63 -7 -63 647 0 528 2
593 16 599 8 3 90 1 181 -4 l165 -9 28 -31 c18 -20 32 -52 40 -90 21 -100 24
-108 51 -108 l24 0 3 170 2 170 -640 0 c-587 0 -640 -1 -640 -16z"/>
<path d="M666 6871 c-9 -14 4 -40 22 -45 10 -2 33 -7 53 -10 20 -4 47 -18 60
-32 l24 -26 0 -587 c0 -475 -3 -591 -13 -604 -13 -15 -46 -28 -104 -41 -19 -4
-28 -13 -28 -26 0 -19 7 -20 238 -20 130 0 267 -3 305 -7 67 -6 67 -6 67 20 0
22 -5 26 -42 32 -68 11 -114 34 -127 61 -8 18 -11 196 -11 614 l0 589 35 7
c19 3 70 5 113 3 66 -3 86 -9 128 -34 189 -117 169 -509 -30 -612 -17 -9 -56
-19 -86 -22 -50 -6 -55 -8 -55 -31 l0 -25 115 1 c89 1 128 7 174 23 124 44
215 125 269 239 29 61 32 76 32 167 0 89 -3 106 -27 150 -57 109 -166 184
-305 211 -86 16 -798 21 -807 5z"/>
<path d="M6297 6873 c-4 -3 -7 -14 -7 -24 0 -13 11 -19 46 -25 30 -4 58 -17
78 -35 l31 -27 3 -609 c3 -644 -3 -798 -39 -906 -29 -88 -76 -150 -138 -178
-38 -18 -50 -29 -51 -46 0 -17 6 -23 20 -23 41 0 177 61 242 110 78 57 117
106 164 205 67 141 66 128 76 805 5 338 11 625 14 637 7 36 44 62 96 69 42 6
48 10 48 30 l0 24 -288 0 c-159 0 -292 -3 -295 -7z"/>
<path d="M7030 6856 c0 -21 6 -25 47 -31 31 -4 55 -16 75 -35 l28 -28 0 -579
c0 -445 -3 -584 -13 -603 -8 -16 -28 -30 -57 -39 -80 -25 -92 -31 -88 -47 3
-15 51 -17 538 -15 294 1 538 5 542 9 6 6 68 302 68 325 0 5 -14 7 -32 5 -28
-3 -33 -8 -48 -54 -28 -88 -65 -140 -117 -166 -46 -22 -57 -23 -270 -23 -122
0 -225 4 -229 8 -5 5 -9 133 -9 285 l0 277 155 2 c193 2 247 -4 271 -28 18
-18 22 -30 34 -102 5 -32 10 -38 28 -35 22 3 22 5 22 208 l0 205 -25 0 c-23 0
-26 -5 -32 -54 -11 -94 -14 -95 -253 -99 l-205 -3 0 276 0 277 213 -4 c225 -4
247 -8 291 -57 11 -12 27 -52 37 -89 16 -63 18 -67 45 -67 26 0 29 3 28 33 0
17 -1 86 -2 152 l-2 120 -520 0 -520 0 0 -24z"/>
<path d="M8424 6865 c-8 -20 4 -35 29 -35 30 -1 98 -33 118 -56 9 -10 19 -30
22 -44 4 -14 -14 -223 -38 -465 -60 -589 -66 -646 -76 -672 -12 -31 -50 -53
-106 -61 -41 -6 -48 -10 -48 -30 l0 -22 223 -3 222 -2 0 22 c0 23 -5 25 -81
38 -21 3 -49 15 -63 26 -33 26 -33 26 4 425 16 175 32 369 36 429 4 61 10 118
13 128 8 22 51 -72 191 -413 129 -315 227 -545 261 -612 25 -50 33 -58 57 -58
26 0 32 9 89 138 144 321 196 439 283 647 122 291 142 336 148 331 8 -8 42
-394 73 -824 14 -201 16 -198 -124 -227 -22 -4 -28 -11 -25 -28 l3 -22 308 -3
307 -3 0 25 c0 22 -6 26 -54 36 -62 13 -101 39 -110 73 -11 44 -106 1022 -106
1092 0 47 5 78 15 92 16 23 70 43 118 43 22 0 27 4 27 25 l0 25 -210 0 c-192
0 -211 -2 -216 -17 -19 -57 -193 -481 -247 -603 -35 -80 -89 -200 -118 -267
-30 -67 -58 -121 -62 -120 -7 2 -59 118 -256 567 -40 91 -100 227 -134 303
l-61 137 -203 0 c-169 0 -205 -2 -209 -15z"/>
<path d="M12190 6856 c0 -21 7 -25 57 -37 41 -10 62 -22 77 -42 21 -28 21 -34
18 -605 -2 -317 -5 -585 -8 -595 -7 -22 -47 -43 -101 -52 -36 -6 -43 -10 -43
-30 l0 -24 536 4 c295 2 538 6 541 8 5 5 73 320 73 338 0 5 -15 9 -33 9 -32 0
-33 -2 -55 -73 -13 -41 -37 -90 -54 -112 -51 -61 -78 -68 -300 -73 -108 -2
-212 -2 -232 2 l-35 7 -3 277 c-2 152 -1 280 2 284 3 4 96 4 207 0 233 -8 229
-7 247 -99 10 -48 16 -59 34 -61 12 -2 22 0 23 5 0 4 1 99 2 211 l2 202 -26 0
c-23 0 -27 -6 -40 -62 -21 -93 -35 -98 -266 -98 l-183 0 0 276 0 276 203 -4
c268 -5 291 -16 327 -153 14 -53 18 -60 43 -63 l27 -3 0 79 c0 43 -3 113 -6
155 l-7 77 -513 0 -514 0 0 -24z"/>
<path d="M13484 6865 c-9 -23 3 -33 58 -44 59 -13 109 -41 138 -78 20 -25 20
-39 20 -587 0 -476 -2 -565 -15 -582 -13 -20 -68 -40 -125 -46 -18 -2 -26 -10
-28 -28 l-3 -25 233 0 c207 1 233 3 236 17 4 22 -12 31 -83 45 -107 23 -99
-18 -106 531 -4 262 -4 481 -1 486 2 5 19 -7 36 -27 42 -48 690 -777 842 -947
110 -122 124 -135 153 -134 66 4 61 -47 61 623 0 406 4 627 11 661 13 61 43
85 120 95 43 6 49 10 49 31 l0 24 -237 -2 c-233 -3 -238 -3 -241 -24 -3 -19 5
-22 65 -32 80 -13 108 -38 118 -104 3 -24 5 -218 3 -431 l-3 -389 -200 223
c-110 122 -265 295 -345 384 -80 88 -187 209 -239 268 l-93 107 -210 0 c-173
0 -210 -2 -214 -15z"/>
<path d="M15270 6855 c0 -20 6 -25 38 -30 59 -10 102 -33 112 -61 6 -15 10
-251 10 -603 l0 -578 -22 -21 c-13 -11 -35 -23 -50 -26 -16 -3 -39 -8 -53 -11
-18 -4 -25 -12 -25 -28 l0 -23 403 4 c442 3 511 10 648 63 257 99 416 300 450
570 28 213 -43 425 -189 566 -98 95 -276 172 -447 192 -50 6 -265 11 -482 11
l-393 0 0 -25z m810 -82 c185 -44 321 -190 377 -403 24 -91 24 -329 0 -424
-54 -214 -185 -344 -380 -377 -83 -14 -240 -7 -307 13 l-45 14 -6 129 c-4 72
-7 338 -8 592 l-1 462 33 6 c104 17 236 12 337 -12z"/>
<path d="M3432 5740 c-47 -29 -72 -76 -72 -136 0 -115 114 -186 224 -140 76
32 109 143 64 220 -43 72 -145 99 -216 56z"/>
<path d="M17639 5153 c-13 -16 -12 -17 4 -4 9 7 17 15 17 17 0 8 -8 3 -21 -13z"/>
<path d="M17460 5039 c-177 -113 -616 -337 -820 -418 -878 -350 -1937 -521
-3215 -521 -759 0 -1638 74 -3215 270 -922 114 -1287 156 -1739 200 -950 92
-1376 118 -2096 127 -834 10 -1400 -22 -2120 -123 -681 -95 -1322 -265 -1918
-507 -81 -33 -146 -62 -144 -64 2 -2 87 25 188 60 436 151 1079 288 1649 352
799 89 1634 100 2590 35 804 -55 1385 -121 3070 -346 1601 -214 2924 -310
3790 -275 811 33 1466 125 2054 288 507 140 975 322 1331 518 122 67 337 196
430 258 159 106 353 254 324 246 -2 -1 -74 -46 -159 -100z"/>
<path d="M17374 5054 c-18 -14 -18 -14 6 -3 31 14 36 19 24 19 -6 0 -19 -7
-30 -16z"/>
<path d="M17110 4934 c-80 -35 -199 -81 -265 -103 -130 -43 -212 -76 -163 -66
36 7 28 -20 -9 -30 -14 -3 -23 -8 -20 -11 7 -7 189 62 267 102 36 18 106 50
155 72 93 42 207 102 190 101 -5 0 -75 -29 -155 -65z"/>
<path d="M16578 4743 c-10 -2 -18 -9 -18 -14 0 -6 7 -6 18 -1 9 5 24 12 32 15
13 5 13 5 0 5 -8 0 -23 -2 -32 -5z"/>
<path d="M16490 4679 c0 -6 -73 -39 -88 -39 -6 0 -13 -4 -17 -10 -3 -5 16 -3
42 5 26 8 64 20 83 25 60 17 70 30 23 27 -24 -1 -43 -5 -43 -8z"/>
<path d="M10063 4673 c9 -2 25 -2 35 0 9 3 1 5 -18 5 -19 0 -27 -2 -17 -5z"/>
<path d="M10160 4661 c8 -6 27 -11 42 -11 22 0 25 -3 21 -22 -3 -13 -11 -29
-16 -36 -7 -9 -7 -16 0 -20 5 -4 13 -19 17 -34 5 -23 3 -28 -13 -28 -10 0 -24
-7 -31 -15 -7 -8 -30 -15 -54 -16 -22 -1 24 -10 104 -20 80 -10 215 -28 300
-39 143 -19 246 -25 195 -13 -11 3 -24 10 -28 17 -6 8 -10 8 -13 0 -3 -6 -16
-9 -29 -6 -14 2 -22 9 -18 15 4 6 -4 8 -21 5 -32 -6 -34 -1 -3 12 17 7 18 9 4
9 -15 1 -15 4 -5 21 7 11 19 18 27 15 10 -4 12 1 7 19 -7 27 13 50 36 41 9 -4
23 1 32 10 9 9 20 13 26 10 5 -3 10 -1 10 4 0 6 17 12 38 12 42 2 -5 8 -343
45 -126 13 -246 27 -265 30 -26 4 -31 3 -20 -5z"/>
<path d="M16308 4603 c7 -3 16 -2 19 1 4 3 -2 6 -13 5 -11 0 -14 -3 -6 -6z"/>
<path d="M10858 4583 c6 -2 18 -2 25 0 6 3 1 5 -13 5 -14 0 -19 -2 -12 -5z"/>
<path d="M10023 4483 c9 -2 23 -2 30 0 6 3 -1 5 -18 5 -16 0 -22 -2 -12 -5z"/>
<path d="M3220 4425 c-19 -7 -28 -13 -20 -13 8 0 31 6 50 13 19 7 28 13 20 13
-8 0 -31 -6 -50 -13z"/>
<path d="M10759 4397 c5 -5 19 -7 32 -5 20 3 19 5 -9 9 -20 3 -29 2 -23 -4z"/>
<path d="M16260 4289 c-52 -23 -167 -66 -255 -96 -88 -30 -185 -64 -215 -75
-30 -11 -102 -32 -160 -48 -80 -22 -96 -29 -68 -29 20 -1 40 4 44 10 5 8 9 8
14 -1 8 -13 230 55 375 115 174 73 370 156 374 161 12 11 -22 0 -109 -37z"/>
<path d="M3095 4200 c4 -6 11 -8 16 -5 14 9 11 15 -7 15 -8 0 -12 -5 -9 -10z"/>
<path d="M2890 4165 c-257 -60 -269 -71 -25 -24 88 17 175 33 192 36 36 6 35
23 0 22 -12 0 -87 -16 -167 -34z"/>
<path d="M9393 4063 c9 -2 23 -2 30 0 6 3 -1 5 -18 5 -16 0 -22 -2 -12 -5z"/>
<path d="M9468 4053 c12 -2 30 -2 40 0 9 3 -1 5 -23 4 -22 0 -30 -2 -17 -4z"/>
<path d="M9542 4043 c9 -2 18 -14 20 -26 2 -15 10 -22 25 -21 12 0 20 -3 17
-8 -3 -4 -1 -8 5 -8 5 0 18 -3 28 -7 15 -6 16 -4 5 9 -10 13 -9 18 10 30 14 9
31 12 43 8 11 -4 31 -4 45 0 16 4 -12 10 -80 18 -105 12 -152 14 -118 5z"/>
<path d="M2358 4023 c7 -3 16 -2 19 1 4 3 -2 6 -13 5 -11 0 -14 -3 -6 -6z"/>
<path d="M9788 4013 c7 -3 16 -2 19 1 4 3 -2 6 -13 5 -11 0 -14 -3 -6 -6z"/>
<path d="M9693 3988 c-2 -16 1 -18 10 -9 7 7 8 14 1 21 -6 6 -10 2 -11 -12z"/>
<path d="M9609 3947 c-1 -7 -1 -21 0 -32 2 -17 0 -18 -9 -5 -9 13 -11 13 -19
1 -8 -12 -14 -13 -36 -3 -33 15 -36 15 -32 0 1 -7 18 -16 37 -19 l35 -6 -42
-2 c-25 0 -43 4 -43 10 0 5 -5 7 -11 3 -22 -13 9 -22 141 -38 143 -17 291 -28
252 -20 -15 4 -22 11 -18 20 4 10 -2 14 -19 14 -14 0 -25 5 -25 10 0 6 -11 10
-25 10 -14 0 -25 5 -25 12 0 6 -3 8 -7 5 -3 -4 -12 -2 -19 4 -8 6 -14 7 -18 0
-8 -12 -34 -4 -61 19 -28 24 -55 32 -56 17z m47 -18 c7 -12 -15 -31 -28 -23
-9 6 1 34 12 34 5 0 12 -5 16 -11z m187 -78 c5 -5 -12 -5 -38 0 -26 5 -50 7
-54 5 -4 -3 -13 -1 -21 5 -10 5 7 7 45 3 33 -3 64 -9 68 -13z"/>
<path d="M9343 3893 c9 -2 25 -2 35 0 9 3 1 5 -18 5 -19 0 -27 -2 -17 -5z"/>
<path d="M9430 3890 c-24 -8 -23 -8 8 -9 17 -1 32 4 32 9 0 11 -5 11 -40 0z"/>
<path d="M9923 3823 c9 -2 23 -2 30 0 6 3 -1 5 -18 5 -16 0 -22 -2 -12 -5z"/>
</g>
</svg>
